<?xml version="1.0" encoding="UTF-8"?>
<svg xmlns="http://www.w3.org/2000/svg" xmlns:xlink="http://www.w3.org/1999/xlink" width="91.89pt" height="91.89pt" viewBox="0 0 91.89 91.89" version="1.1">
<g id="surface1">
<path style=" stroke:none;fill-rule:nonzero;fill:rgb(94.029236%,23.397827%,17.89093%);fill-opacity:1;" d="M 90.15625 41.855469 L 50.035156 1.738281 C 47.726562 -0.574219 43.976562 -0.574219 41.664062 1.738281 L 33.335938 10.070312 L 43.902344 20.636719 C 46.359375 19.808594 49.175781 20.363281 51.132812 22.320312 C 53.101562 24.289062 53.652344 27.132812 52.800781 29.597656 L 62.988281 39.78125 C 65.453125 38.929688 68.292969 39.480469 70.265625 41.453125 C 73.015625 44.199219 73.015625 48.65625 70.265625 51.410156 C 67.511719 54.160156 63.054688 54.160156 60.300781 51.410156 C 58.234375 49.339844 57.722656 46.300781 58.773438 43.75 L 49.273438 34.25 L 49.273438 59.25 C 49.941406 59.582031 50.574219 60.023438 51.132812 60.578125 C 53.882812 63.328125 53.882812 67.785156 51.132812 70.539062 C 48.382812 73.289062 43.921875 73.289062 41.175781 70.539062 C 38.425781 67.785156 38.425781 63.328125 41.175781 60.578125 C 41.855469 59.902344 42.644531 59.386719 43.480469 59.042969 L 43.480469 33.816406 C 42.644531 33.472656 41.855469 32.960938 41.175781 32.277344 C 39.09375 30.195312 38.59375 27.140625 39.660156 24.582031 L 29.242188 14.160156 L 1.730469 41.667969 C -0.578125 43.980469 -0.578125 47.730469 1.730469 50.039062 L 41.851562 90.15625 C 44.164062 92.46875 47.910156 92.46875 50.222656 90.15625 L 90.15625 50.226562 C 92.464844 47.914062 92.464844 44.164062 90.15625 41.855469 "/>
</g>
</svg>
