<?xml version="1.0" encoding="UTF-8" standalone="no"?>
<svg xmlns:rdf="http://www.w3.org/1999/02/22-rdf-syntax-ns#" xmlns="http://www.w3.org/2000/svg" xmlns:cc="http://web.resource.org/cc/" xmlns:dc="http://purl.org/dc/elements/1.1/" xmlns:svg="http://www.w3.org/2000/svg" xmlns:inkscape="http://www.inkscape.org/namespaces/inkscape" xmlns:sodipodi="http://sodipodi.sourceforge.net/DTD/sodipodi-0.dtd" xmlns:ns1="http://sozi.baierouge.fr" xmlns:xlink="http://www.w3.org/1999/xlink" viewBox="0 0 81 80">
  <g id="imagebot_2">
    <g id="imagebot_3" fill-rule="evenodd" stroke-width=".25pt" fill="#007f3f" transform="translate(.25) matrix(.96875 0 0 .98751 1.7043 1.2975)">
      <path id="imagebot_9" d="m54.962 37.281l17.138-10.262 7.678 14.835c1.855 8.105-8.309 11.079-16.47 10.596l-8.346-15.169z"/>
      <path id="imagebot_8" d="m51.067 47.877l-9.013 15.95 9.013 16.173 0.223-6.469h8.235c3.005 0.26 6.899-1.711 8.346-4.573l10.572-19.408c-3.487 3.458-7.971 4.35-13.131 4.35h-13.911l-0.334-6.023z"/>
      <path id="imagebot_7" d="m30.928 28.212l-17.269-10.037 9.213-13.93c6.17-5.5589 13.698 1.904 17.237 9.29l-9.181 14.677z"/>
      <path id="imagebot_6" d="m42.062 26.482l18.288 0.157 9.732-15.749-5.751 2.945-3.997-7.2167c-1.231-2.7593-4.84-5.216-8.04-5.0942l-22.06 0.156c4.708 1.3773 7.663 4.8732 10.168 9.3959l6.752 12.19-5.092 3.216z"/>
      <path id="imagebot_5" d="m0.44401 27.381l5.3508 4.101-5.036 9.464c-2.5181 4.365 1.8077 8.616 4.5639 10.096 2.7133 1.457 6.9243 1.63 10.859 1.577l7.082-11.357 5.35 2.839-9.285-16.878-18.885 0.158z"/>
      <path id="imagebot_4" d="m1.2309 49.307l11.488 20.821c2.309 2.892 6.663 3.576 11.174 3.471h12.118v-19.718l-22.977-0.158c-3.5671 0.211-8.2359-0.525-11.803-4.416z"/>
    </g>
    <title>imagebot_2</title>
  </g>
  <metadata>
    <rdf:RDF>
      <cc:Work>
        <dc:format>image/svg+xml</dc:format>
        <dc:type rdf:resource="http://purl.org/dc/dcmitype/StillImage"/>
        <cc:license rdf:resource="http://creativecommons.org/licenses/publicdomain/"/>
        <dc:publisher>
          <cc:Agent rdf:about="http://openclipart.org/">
            <dc:title>Openclipart</dc:title>
          </cc:Agent>
        </dc:publisher>
        <dc:title>Green recycling</dc:title>
        <dc:date>2012-07-12T10:28:47</dc:date>
        <dc:description>green recycling symbol</dc:description>
        <dc:source>https://openclipart.org/detail/171146/green-recycling-by-garethclubb-171146</dc:source>
        <dc:creator>
          <cc:Agent>
            <dc:title>garethclubb</dc:title>
          </cc:Agent>
        </dc:creator>
        <dc:subject>
          <rdf:Bag>
            <rdf:li>green recycling environment eco</rdf:li>
          </rdf:Bag>
        </dc:subject>
      </cc:Work>
      <cc:License rdf:about="http://creativecommons.org/licenses/publicdomain/">
        <cc:permits rdf:resource="http://creativecommons.org/ns#Reproduction"/>
        <cc:permits rdf:resource="http://creativecommons.org/ns#Distribution"/>
        <cc:permits rdf:resource="http://creativecommons.org/ns#DerivativeWorks"/>
      </cc:License>
    </rdf:RDF>
  </metadata>
</svg>