<?xml version="1.0" encoding="UTF-8" standalone="no"?>
<!-- Created with Inkscape (http://www.inkscape.org/) -->

<svg
   xmlns:dc="http://purl.org/dc/elements/1.1/"
   xmlns:cc="http://creativecommons.org/ns#"
   xmlns:rdf="http://www.w3.org/1999/02/22-rdf-syntax-ns#"
   xmlns:svg="http://www.w3.org/2000/svg"
   xmlns="http://www.w3.org/2000/svg"
   version="1.1"
   width="1328"
   height="247"
   id="svg2">
  <metadata
     id="metadata8">
    <rdf:RDF>
      <cc:Work
         rdf:about="">
        <dc:format>image/svg+xml</dc:format>
        <dc:type
           rdf:resource="http://purl.org/dc/dcmitype/StillImage" />
        <dc:title></dc:title>
      </cc:Work>
    </rdf:RDF>
  </metadata>
  <defs
     id="defs6" />
  <g
     id="layer1"
     style="display:inline">
    <rect
       width="296.117"
       height="22.675629"
       x="473.4744"
       y="190.64197"
       id="rect3872"
       style="fill:#ff5100;fill-opacity:1;stroke:none;display:inline" />
    <rect
       width="177.40346"
       height="22.675629"
       x="573.56006"
       y="22.244503"
       id="rect3872-8"
       style="fill:#ff5100;fill-opacity:1;stroke:none;display:inline" />
    <rect
       width="1181.8004"
       height="22.675629"
       x="89.368629"
       y="106.60644"
       id="rect3872-3"
       style="fill:#ff5100;fill-opacity:1;stroke:none;display:inline" />
    <rect
       width="114.71201"
       height="22.675629"
       x="353.59915"
       y="-214.89131"
       transform="matrix(0.67762844,0.73540444,-0.73540444,0.67762844,0,0)"
       id="rect3872-5"
       style="fill:#ff5100;fill-opacity:1;stroke:none;display:inline" />
    <rect
       width="114.71201"
       height="22.675629"
       x="-549.40417"
       y="-674.67236"
       transform="matrix(-0.73697941,0.67591519,-0.67591519,-0.73697941,0,0)"
       id="rect3872-5-4"
       style="fill:#ff5100;fill-opacity:1;stroke:none;display:inline" />
    <rect
       width="114.71201"
       height="22.675629"
       x="-317.77664"
       y="-504.22983"
       transform="matrix(-0.583727,0.81194999,-0.81194999,-0.583727,0,0)"
       id="rect3872-5-0"
       style="fill:#ff5100;fill-opacity:1;stroke:none;display:inline" />
    <rect
       width="222.75471"
       height="22.675629"
       x="1019.0699"
       y="22.244503"
       id="rect3872-8-1"
       style="fill:#ff5100;fill-opacity:1;stroke:none;display:inline" />
    <rect
       width="114.71201"
       height="22.675629"
       x="-576.55554"
       y="-866.87982"
       transform="matrix(-0.583727,0.81194999,-0.81194999,-0.583727,0,0)"
       id="rect3872-5-0-7"
       style="fill:#ff5100;fill-opacity:1;stroke:none;display:inline" />
  </g>
  <g
     id="layer2"
     style="display:inline">
    <path
       d="m 171.6591,99.86364 a 19.806818,19.806818 0 1 1 -39.61364,0 19.806818,19.806818 0 1 1 39.61364,0 z"
       transform="translate(-76.379272,18.08061)"
       id="path2989"
       style="fill:#ff5100;fill-opacity:1;fill-rule:evenodd;stroke:#b43b0c;stroke-width:4;stroke-linecap:butt;stroke-linejoin:miter;stroke-miterlimit:4;stroke-opacity:1;stroke-dasharray:none" />
    <path
       d="m 171.6591,99.86364 a 19.806818,19.806818 0 1 1 -39.61364,0 19.806818,19.806818 0 1 1 39.61364,0 z"
       transform="translate(310.60488,102.11614)"
       id="path2989-1"
       style="fill:#ff5100;fill-opacity:1;fill-rule:evenodd;stroke:#b43b0c;stroke-width:4;stroke-linecap:butt;stroke-linejoin:miter;stroke-miterlimit:4;stroke-opacity:1;stroke-dasharray:none" />
    <path
       d="m 171.6591,99.86364 a 19.806818,19.806818 0 1 1 -39.61364,0 19.806818,19.806818 0 1 1 39.61364,0 z"
       transform="translate(238.10721,18.08061)"
       id="path2989-2"
       style="fill:#ff5100;fill-opacity:1;fill-rule:evenodd;stroke:#b43b0c;stroke-width:4;stroke-linecap:butt;stroke-linejoin:miter;stroke-miterlimit:4;stroke-opacity:1;stroke-dasharray:none" />
    <path
       d="m 171.6591,99.86364 a 19.806818,19.806818 0 1 1 -39.61364,0 19.806818,19.806818 0 1 1 39.61364,0 z"
       transform="translate(559.38753,18.08061)"
       id="path2989-1-3"
       style="fill:#ff5100;fill-opacity:1;fill-rule:evenodd;stroke:#b43b0c;stroke-width:4;stroke-linecap:butt;stroke-linejoin:miter;stroke-miterlimit:4;stroke-opacity:1;stroke-dasharray:none" />
    <path
       d="m 171.6591,99.86364 a 19.806818,19.806818 0 1 1 -39.61364,0 19.806818,19.806818 0 1 1 39.61364,0 z"
       transform="translate(448.46329,102.11614)"
       id="path2989-1-3-8"
       style="fill:#ff5100;fill-opacity:1;fill-rule:evenodd;stroke:#b43b0c;stroke-width:4;stroke-linecap:butt;stroke-linejoin:miter;stroke-miterlimit:4;stroke-opacity:1;stroke-dasharray:none" />
    <path
       d="m 171.6591,99.86364 a 19.806818,19.806818 0 1 1 -39.61364,0 19.806818,19.806818 0 1 1 39.61364,0 z"
       transform="translate(1114.5384,18.08061)"
       id="path2989-1-0-6"
       style="fill:#ff5100;fill-opacity:1;fill-rule:evenodd;stroke:#b43b0c;stroke-width:4;stroke-linecap:butt;stroke-linejoin:miter;stroke-miterlimit:4;stroke-opacity:1;stroke-dasharray:none" />
    <path
       d="m 171.6591,99.86364 a 19.806818,19.806818 0 1 1 -39.61364,0 19.806818,19.806818 0 1 1 39.61364,0 z"
       transform="translate(691.81371,18.08061)"
       id="path2989-1-2"
       style="fill:#ff5100;fill-opacity:1;fill-rule:evenodd;stroke:#b43b0c;stroke-width:4;stroke-linecap:butt;stroke-linejoin:miter;stroke-miterlimit:4;stroke-opacity:1;stroke-dasharray:none;display:inline" />
    <path
       d="m 171.6591,99.86364 a 19.806818,19.806818 0 1 1 -39.61364,0 19.806818,19.806818 0 1 1 39.61364,0 z"
       transform="translate(524.415,102.11614)"
       id="path2989-1-3-8-1"
       style="fill:#ff5100;fill-opacity:1;fill-rule:evenodd;stroke:#b43b0c;stroke-width:4;stroke-linecap:butt;stroke-linejoin:miter;stroke-miterlimit:4;stroke-opacity:1;stroke-dasharray:none;display:inline" />
    <path
       d="m 171.6591,99.86364 a 19.806818,19.806818 0 1 1 -39.61364,0 19.806818,19.806818 0 1 1 39.61364,0 z"
       transform="translate(612.4498,102.11614)"
       id="path2989-1-3-8-3"
       style="fill:#ff5100;fill-opacity:1;fill-rule:evenodd;stroke:#b43b0c;stroke-width:4;stroke-linecap:butt;stroke-linejoin:miter;stroke-miterlimit:4;stroke-opacity:1;stroke-dasharray:none;display:inline" />
    <path
       d="m 171.6591,99.86364 a 19.806818,19.806818 0 1 1 -39.61364,0 19.806818,19.806818 0 1 1 39.61364,0 z"
       transform="translate(70.902432,18.08061)"
       id="path2989-1-3-7"
       style="fill:#ff5100;fill-opacity:1;fill-rule:evenodd;stroke:#b43b0c;stroke-width:4;stroke-linecap:butt;stroke-linejoin:miter;stroke-miterlimit:4;stroke-opacity:1;stroke-dasharray:none;display:inline" />
    <path
       d="m 171.6591,99.86364 a 19.806818,19.806818 0 1 1 -39.61364,0 19.806818,19.806818 0 1 1 39.61364,0 z"
       transform="translate(375.02262,18.08061)"
       id="path2989-1-6"
       style="fill:#ff5100;fill-opacity:1;fill-rule:evenodd;stroke:#b43b0c;stroke-width:4;stroke-linecap:butt;stroke-linejoin:miter;stroke-miterlimit:4;stroke-opacity:1;stroke-dasharray:none;display:inline" />
    <path
       d="m 171.6591,99.86364 a 19.806818,19.806818 0 1 1 -39.61364,0 19.806818,19.806818 0 1 1 39.61364,0 z"
       transform="translate(432.37863,-66.281322)"
       id="path2989-1-3-6"
       style="fill:#ff5100;fill-opacity:1;fill-rule:evenodd;stroke:#b43b0c;stroke-width:4;stroke-linecap:butt;stroke-linejoin:miter;stroke-miterlimit:4;stroke-opacity:1;stroke-dasharray:none;display:inline" />
    <path
       d="m 171.6591,99.86364 a 19.806818,19.806818 0 1 1 -39.61364,0 19.806818,19.806818 0 1 1 39.61364,0 z"
       transform="translate(583.10487,-66.281322)"
       id="path2989-1-3-5"
       style="fill:#ff5100;fill-opacity:1;fill-rule:evenodd;stroke:#b43b0c;stroke-width:4;stroke-linecap:butt;stroke-linejoin:miter;stroke-miterlimit:4;stroke-opacity:1;stroke-dasharray:none;display:inline" />
    <path
       d="m 171.6591,99.86364 a 19.806818,19.806818 0 1 1 -39.61364,0 19.806818,19.806818 0 1 1 39.61364,0 z"
       transform="translate(821.30294,18.08061)"
       id="path2989-1-0"
       style="fill:#ff5100;fill-opacity:1;fill-rule:evenodd;stroke:#b43b0c;stroke-width:4;stroke-linecap:butt;stroke-linejoin:miter;stroke-miterlimit:4;stroke-opacity:1;stroke-dasharray:none" />
    <path
       d="m 171.6591,99.86364 a 19.806818,19.806818 0 1 1 -39.61364,0 19.806818,19.806818 0 1 1 39.61364,0 z"
       transform="translate(879.65756,-66.281322)"
       id="path2989-1-3-6-3"
       style="fill:#ff5100;fill-opacity:1;fill-rule:evenodd;stroke:#b43b0c;stroke-width:4;stroke-linecap:butt;stroke-linejoin:miter;stroke-miterlimit:4;stroke-opacity:1;stroke-dasharray:none;display:inline" />
    <path
       d="m 171.6591,99.86364 a 19.806818,19.806818 0 1 1 -39.61364,0 19.806818,19.806818 0 1 1 39.61364,0 z"
       transform="translate(1073.0673,-66.281322)"
       id="path2989-1-3-5-1"
       style="fill:#ff5100;fill-opacity:1;fill-rule:evenodd;stroke:#b43b0c;stroke-width:4;stroke-linecap:butt;stroke-linejoin:miter;stroke-miterlimit:4;stroke-opacity:1;stroke-dasharray:none;display:inline" />
    <path
       d="m 171.6591,99.86364 a 19.806818,19.806818 0 1 1 -39.61364,0 19.806818,19.806818 0 1 1 39.61364,0 z"
       transform="translate(951.25035,-66.281322)"
       id="path2989-1-3-5-1-7"
       style="fill:#ff5100;fill-opacity:1;fill-rule:evenodd;stroke:#b43b0c;stroke-width:4;stroke-linecap:butt;stroke-linejoin:miter;stroke-miterlimit:4;stroke-opacity:1;stroke-dasharray:none;display:inline" />
    <path
       d="m 171.6591,99.86364 a 19.806818,19.806818 0 1 1 -39.61364,0 19.806818,19.806818 0 1 1 39.61364,0 z"
       transform="translate(142.9309,18.08061)"
       id="path2989-1-3-7-9"
       style="fill:#ff5100;fill-opacity:1;fill-rule:evenodd;stroke:#b43b0c;stroke-width:4;stroke-linecap:butt;stroke-linejoin:miter;stroke-miterlimit:4;stroke-opacity:1;stroke-dasharray:none;display:inline" />
  </g>
</svg>
