<?xml version="1.0" encoding="UTF-8" standalone="no"?>
<!-- Created with Inkscape (http://www.inkscape.org/) -->

<svg
   xmlns:dc="http://purl.org/dc/elements/1.1/"
   xmlns:cc="http://creativecommons.org/ns#"
   xmlns:rdf="http://www.w3.org/1999/02/22-rdf-syntax-ns#"
   xmlns:svg="http://www.w3.org/2000/svg"
   xmlns="http://www.w3.org/2000/svg"
   xmlns:sodipodi="http://sodipodi.sourceforge.net/DTD/sodipodi-0.dtd"
   xmlns:inkscape="http://www.inkscape.org/namespaces/inkscape"
   width="217.23882mm"
   height="18.580099mm"
   viewBox="0 0 769.74383 65.834997"
   id="svg2"
   version="1.1"
   inkscape:version="0.91 r13725"
   sodipodi:docname="ncsu_cga.svg">
  <defs
     id="defs4" />
  <sodipodi:namedview
     id="base"
     pagecolor="#ffffff"
     bordercolor="#666666"
     borderopacity="1.0"
     inkscape:pageopacity="0.0"
     inkscape:pageshadow="2"
     inkscape:zoom="0.98994949"
     inkscape:cx="568.81114"
     inkscape:cy="58.550882"
     inkscape:document-units="px"
     inkscape:current-layer="g4146"
     showgrid="true"
     inkscape:window-width="1877"
     inkscape:window-height="1176"
     inkscape:window-x="43"
     inkscape:window-y="24"
     inkscape:window-maximized="1"
     fit-margin-top="0"
     fit-margin-left="0"
     fit-margin-right="0"
     fit-margin-bottom="0">
    <inkscape:grid
       type="xygrid"
       id="grid4285"
       originx="495.61344"
       originy="-540.4568" />
  </sodipodi:namedview>
  <metadata
     id="metadata7">
    <rdf:RDF>
      <cc:Work
         rdf:about="">
        <dc:format>image/svg+xml</dc:format>
        <dc:type
           rdf:resource="http://purl.org/dc/dcmitype/StillImage" />
        <dc:title></dc:title>
      </cc:Work>
    </rdf:RDF>
  </metadata>
  <g
     inkscape:label="Layer 1"
     inkscape:groupmode="layer"
     id="layer1"
     transform="translate(495.61344,-446.07039)">
    <g
       transform="matrix(1.25,0,0,-1.25,-497.16473,593.52408)"
       inkscape:label="ncsu_cga"
       id="g4144">
      <g
         id="g4146">
        <path
           inkscape:connector-curvature="0"
           id="path4148"
           style="fill:#080508;fill-opacity:1;fill-rule:nonzero;stroke:none"
           d="m 355.7861,110.23995 c 0,4.016 0.039,7.723 4.488,7.723 3.606,0 3.668,-2.965 3.668,-4.305 l -1.32,0 c 0,1.649 -0.453,3.196 -2.348,3.196 -3.129,0 -3.172,-2.661 -3.172,-6.614 0,-3.957 0.043,-6.613 3.172,-6.613 1.711,0 2.348,1.524 2.371,3.438 l 1.399,0 c 0,-1.071 -0.246,-4.551 -3.77,-4.551 -4.449,0 -4.488,3.711 -4.488,7.726" />
        <path
           inkscape:connector-curvature="0"
           id="path4150"
           style="fill:#080508;fill-opacity:1;fill-rule:nonzero;stroke:none"
           d="m 367.1341,107.74395 0,-0.801 c 0,-1.441 0.39,-3.355 2.347,-3.355 1.543,0 2.309,0.984 2.286,2.387 l 1.3,0 c -0.144,-2.512 -1.504,-3.379 -3.586,-3.379 -1.793,0 -3.586,0.722 -3.586,3.875 l 0,2.555 c 0,3.007 1.258,4.386 3.586,4.386 3.586,0 3.586,-2.574 3.586,-5.668 l -5.933,0 z m 4.695,0.992 c 0,2.305 -0.371,3.688 -2.348,3.688 -1.976,0 -2.347,-1.383 -2.347,-3.688 l 4.695,0" />
        <path
           inkscape:connector-curvature="0"
           id="path4152"
           style="fill:#080508;fill-opacity:1;fill-rule:nonzero;stroke:none"
           d="m 376.5441,102.80295 -1.234,0 0,10.402 1.234,0 0,-1.277 0.043,0 c 0.598,0.863 1.402,1.484 2.512,1.484 2.574,0 2.843,-1.918 2.843,-3.277 l 0,-7.332 -1.234,0 0,7.269 c 0,1.219 -0.477,2.352 -1.918,2.352 -1.113,0 -2.246,-0.762 -2.246,-3.09 l 0,-6.531" />
        <path
           inkscape:connector-curvature="0"
           id="path4154"
           style="fill:#080508;fill-opacity:1;fill-rule:nonzero;stroke:none"
           d="m 383.5281,112.21695 0,0.988 1.668,0 0,2.145 1.235,0.535 0,-2.68 2.101,0 0,-0.988 -2.101,0 0,-6.676 c 0,-1.379 0.144,-1.707 1.132,-1.707 0.415,0 0.7,0.02 0.969,0.063 l 0,-1.075 c -0.371,-0.039 -0.781,-0.062 -1.172,-0.062 -1.672,0 -2.164,0.742 -2.164,2.019 l 0,7.438 -1.668,0" />
        <path
           inkscape:connector-curvature="0"
           id="path4156"
           style="fill:#080508;fill-opacity:1;fill-rule:nonzero;stroke:none"
           d="m 391.1451,107.74395 0,-0.801 c 0,-1.441 0.395,-3.355 2.352,-3.355 1.543,0 2.305,0.984 2.285,2.387 l 1.297,0 c -0.144,-2.512 -1.504,-3.379 -3.582,-3.379 -1.793,0 -3.586,0.722 -3.586,3.875 l 0,2.555 c 0,3.007 1.258,4.386 3.586,4.386 3.582,0 3.582,-2.574 3.582,-5.668 l -5.934,0 z m 4.7,0.992 c 0,2.305 -0.371,3.688 -2.348,3.688 -1.98,0 -2.352,-1.383 -2.352,-3.688 l 4.7,0" />
        <path
           inkscape:connector-curvature="0"
           id="path4158"
           style="fill:#080508;fill-opacity:1;fill-rule:nonzero;stroke:none"
           d="m 400.6421,111.80295 0.043,0 c 0.511,0.988 1.605,1.609 2.863,1.609 l 0,-1.258 c -1.75,0.145 -2.906,-0.906 -2.906,-2.656 l 0,-6.695 -1.235,0 0,10.402 1.235,0 0,-1.402" />
        <path
           inkscape:connector-curvature="0"
           id="path4160"
           style="fill:#080508;fill-opacity:1;fill-rule:nonzero;stroke:none"
           d="m 410.4271,112.21695 -1.672,0 0,0.988 1.672,0 0,1.75 c 0,0.988 0.14,2.801 2.656,2.801 0.184,0 0.391,-0.039 0.699,-0.082 l 0,-1.027 -0.926,0 c -1.195,0 -1.195,-1.075 -1.195,-1.668 l 0,-1.774 2.102,0 0,-0.988 -2.102,0 0,-9.414 -1.234,0 0,9.414" />
        <path
           inkscape:connector-curvature="0"
           id="path4162"
           style="fill:#080508;fill-opacity:1;fill-rule:nonzero;stroke:none"
           d="m 415.0791,106.88095 0,2.246 c 0,2.699 1.156,4.285 3.586,4.285 2.43,0 3.582,-1.586 3.582,-4.285 l 0,-2.246 c 0,-2.699 -1.152,-4.285 -3.582,-4.285 -2.43,0 -3.586,1.586 -3.586,4.285 z m 1.238,1.133 c 0,-2.719 0.309,-4.426 2.348,-4.426 2.039,0 2.348,1.707 2.348,4.426 0,2.699 -0.309,4.41 -2.348,4.41 -2.039,0 -2.348,-1.711 -2.348,-4.41" />
        <path
           inkscape:connector-curvature="0"
           id="path4164"
           style="fill:#080508;fill-opacity:1;fill-rule:nonzero;stroke:none"
           d="m 425.8101,111.80295 0.042,0 c 0.512,0.988 1.606,1.609 2.864,1.609 l 0,-1.258 c -1.754,0.145 -2.906,-0.906 -2.906,-2.656 l 0,-6.695 -1.235,0 0,10.402 1.235,0 0,-1.402" />
        <path
           inkscape:connector-curvature="0"
           id="path4166"
           style="fill:#080508;fill-opacity:1;fill-rule:nonzero;stroke:none"
           d="m 334.6301,92.079954 c 0.035,2.504 -0.375,4.707 -3.363,4.707 -3.512,0 -3.512,-4.746 -3.512,-9.976 0,-8.442 0.824,-9.934 4.035,-9.934 0.934,0 1.941,0.223 2.801,0.524 l 0,5.976 -3.063,0 0,4.145 8.703,0 0,-13.672 c -1.531,-0.297 -5.379,-0.895 -7.621,-0.895 -9.488,0 -10.57,3.922 -10.57,14.156 0,6.797 0.336,13.706996 9.562,13.706996 5.528,0 8.965,-3.096996 8.629,-8.737996 l -5.601,0" />
        <path
           inkscape:connector-curvature="0"
           id="path4168"
           style="fill:#080508;fill-opacity:1;fill-rule:nonzero;stroke:none"
           d="m 349.7161,81.993954 c 0,-2.242 0.074,-5.601 2.39,-5.601 1.868,0 2.239,1.789 2.239,3.359 l 5.343,0 c -0.074,-2.055 -0.746,-3.734 -2.015,-4.894 -1.235,-1.157 -3.102,-1.829 -5.567,-1.829 -6.8,0 -7.695,4.145 -7.695,10.047 0,5.157 0.746,9.563 7.695,9.563 7.098,0 7.883,-4.594 7.696,-10.645 l -10.086,0 z m 4.816,2.949 c 0,1.833 0.078,4.446 -2.426,4.446 -2.429,0 -2.39,-2.84 -2.39,-4.446 l 4.816,0" />
        <path
           inkscape:connector-curvature="0"
           id="path4170"
           style="fill:#080508;fill-opacity:1;fill-rule:nonzero;stroke:none"
           d="m 363.0831,83.075954 c 0,5.157 0.75,9.563 7.695,9.563 6.95,0 7.696,-4.406 7.696,-9.563 0,-5.902 -0.895,-10.047 -7.696,-10.047 -6.797,0 -7.695,4.145 -7.695,10.047 z m 10.125,0.301 c 0,3.922 -0.188,5.902 -2.43,5.902 -2.242,0 -2.426,-1.98 -2.426,-5.902 0,-5.754 0.485,-6.984 2.426,-6.984 1.942,0 2.43,1.23 2.43,6.984" />
        <path
           inkscape:connector-curvature="0"
           id="path4172"
           style="fill:#080508;fill-opacity:1;fill-rule:nonzero;stroke:none"
           d="m 387.0991,79.454954 c -0.036,-0.859 0,-1.683 0.261,-2.281 0.301,-0.598 0.86,-0.895 1.907,-0.895 1.046,0 1.941,0.672 1.941,1.942 0,3.996 -9.262,3.101 -9.262,9.113 0,4.074 4.035,5.305 7.434,5.305 3.586,0 6.832,-1.719 6.535,-5.789 l -5.156,0 c 0,1.308 -0.149,2.09 -0.52,2.429 -0.34,0.336 -0.785,0.411 -1.347,0.411 -1.157,0 -1.793,-0.75 -1.793,-2.02 0,-2.988 9.265,-2.836 9.265,-8.887 0,-3.289 -2.691,-5.754 -7.058,-5.754 -4.598,0 -7.661,1.157 -7.36,6.426 l 5.153,0" />
        <path
           inkscape:connector-curvature="0"
           id="path4174"
           style="fill:#080508;fill-opacity:1;fill-rule:nonzero;stroke:none"
           d="m 404.5401,92.267954 0,-2.094 0.074,0 c 0.973,1.832 2.43,2.465 4.446,2.465 5.453,0 5.265,-6.051 5.265,-9.934 0,-3.812 0.153,-9.676 -5.152,-9.676 -1.906,0 -3.215,0.559 -4.297,2.164 l -0.074,0 0,-9.898 -5.266,0 0,26.973 5.004,0 z m 4.633,-9.266 c 0,3.774 0.035,6.387 -2.242,6.387 -2.168,0 -2.129,-2.613 -2.129,-6.387 0,-4.742 0.336,-6.723 2.129,-6.723 1.906,0 2.242,1.981 2.242,6.723" />
        <path
           inkscape:connector-curvature="0"
           id="path4176"
           style="fill:#080508;fill-opacity:1;fill-rule:nonzero;stroke:none"
           d="m 431.7701,76.911954 c 0,-1.156 0.149,-2.351 0.258,-3.511 l -4.89,0 -0.227,2.503 -0.074,0 c -1.117,-1.941 -2.652,-2.875 -4.93,-2.875 -3.66,0 -5.004,2.727 -5.004,6.012 0,6.238 4.817,6.5 9.711,6.426 l 0,1.457 c 0,1.605 -0.222,2.766 -2.129,2.766 -1.832,0 -1.98,-1.383 -1.98,-2.879 l -5.156,0 c 0,2.281 0.711,3.738 1.945,4.597 1.195,0.895 2.91,1.231 4.93,1.231 6.687,0 7.546,-2.875 7.546,-6.313 l 0,-9.414 z m -9.714,2.356 c 0,-1.348 0.226,-2.989 1.945,-2.989 3.098,0 2.613,4.184 2.613,6.239 -2.613,-0.114 -4.558,0.109 -4.558,-3.25" />
        <path
           inkscape:connector-curvature="0"
           id="path4178"
           style="fill:#080508;fill-opacity:1;fill-rule:nonzero;stroke:none"
           d="m 434.7551,92.267954 2.129,0 0,2.984 5.265,2.356 0,-5.34 2.727,0 0,-3.25 -2.727,0 0,-10.086 c 0,-1.422 -0.039,-2.356 1.68,-2.356 0.34,0 0.676,0 0.938,0.078 l 0,-3.253 c -0.711,-0.075 -1.457,-0.184 -2.731,-0.184 -4.555,0 -5.152,3.023 -5.152,4.184 l 0,11.617 -2.129,0 0,3.25" />
        <path
           inkscape:connector-curvature="0"
           id="path4180"
           style="fill:#080508;fill-opacity:1;fill-rule:nonzero;stroke:none"
           d="m 452.9811,100.37295 0,-4.147996 -5.265,0 0,4.147996 5.265,0 z m 0,-26.971996 -5.265,0 0,18.867 5.265,0 0,-18.867" />
        <path
           inkscape:connector-curvature="0"
           id="path4182"
           style="fill:#080508;fill-opacity:1;fill-rule:nonzero;stroke:none"
           d="m 471.9541,76.911954 c 0,-1.156 0.148,-2.351 0.262,-3.511 l -4.895,0 -0.222,2.503 -0.075,0 c -1.121,-1.941 -2.652,-2.875 -4.929,-2.875 -3.66,0 -5.008,2.727 -5.008,6.012 0,6.238 4.82,6.5 9.715,6.426 l 0,1.457 c 0,1.605 -0.227,2.766 -2.133,2.766 -1.828,0 -1.981,-1.383 -1.981,-2.879 l -5.152,0 c 0,2.281 0.707,3.738 1.942,4.597 1.195,0.895 2.914,1.231 4.929,1.231 6.688,0 7.547,-2.875 7.547,-6.313 l 0,-9.414 z m -9.711,2.356 c 0,-1.348 0.223,-2.989 1.942,-2.989 3.101,0 2.617,4.184 2.617,6.239 -2.617,-0.114 -4.559,0.109 -4.559,-3.25" />
        <path
           inkscape:connector-curvature="0"
           id="path4184"
           style="fill:#080508;fill-opacity:1;fill-rule:nonzero;stroke:none"
           d="m 476.7701,100.37295 5.266,0 0,-26.972996 -5.266,0 0,26.972996 z" />
        <path
           inkscape:connector-curvature="0"
           id="path4186"
           style="fill:#080508;fill-opacity:1;fill-rule:nonzero;stroke:none"
           d="m 502.9071,100.33395 8.403,-26.968996 -2.5,0 -2.168,7.098 -10.571,0 -2.129,-7.098 -2.39,0 8.515,26.968996 2.84,0 z m 3.098,-17.854996 -4.594,15.242 -0.074,0 -4.559,-15.242 9.227,0" />
        <path
           inkscape:connector-curvature="0"
           id="path4188"
           style="fill:#080508;fill-opacity:1;fill-rule:nonzero;stroke:none"
           d="m 516.3491,73.364954 -2.239,0 0,18.864 2.239,0 0,-2.317 0.078,0 c 1.082,1.567 2.539,2.692 4.554,2.692 4.668,0 5.157,-3.477 5.157,-5.942 l 0,-13.297 -2.243,0 0,13.184 c 0,2.203 -0.859,4.258 -3.472,4.258 -2.02,0 -4.074,-1.379 -4.074,-5.602 l 0,-11.84" />
        <path
           inkscape:connector-curvature="0"
           id="path4190"
           style="fill:#080508;fill-opacity:1;fill-rule:nonzero;stroke:none"
           d="m 541.1851,75.681954 -0.075,0 c -1.191,-1.793 -3.023,-2.692 -5.34,-2.692 -3.363,0 -5.191,2.278 -5.191,5.567 0,6.609 6.649,5.937 10.457,6.238 l 0,1.566 c 0,2.766 -0.82,4.446 -3.808,4.446 -2.055,0 -3.7,-1.008 -3.7,-3.25 l -2.39,0 c 0.187,3.625 2.988,5.047 6.273,5.047 1.906,0 5.867,-0.188 5.867,-5.008 l 0,-9.488 c 0,-1.344 0,-2.54 0.227,-4.743 l -2.32,0 0,2.317 z m -0.149,7.32 c -3.211,-0.113 -8.066,0.262 -8.066,-4.332 0,-2.129 1.082,-3.887 3.398,-3.887 2.578,0 4.668,2.317 4.668,4.782 l 0,3.437" />
        <path
           inkscape:connector-curvature="0"
           id="path4192"
           style="fill:#080508;fill-opacity:1;fill-rule:nonzero;stroke:none"
           d="m 548.7671,100.33395 2.242,0 0,-26.968996 -2.242,0 0,26.968996 z" />
        <path
           inkscape:connector-curvature="0"
           id="path4194"
           style="fill:#080508;fill-opacity:1;fill-rule:nonzero;stroke:none"
           d="m 560.3801,73.325954 -5.977,18.903 2.43,0 4.594,-15.465 0.078,0 4.441,15.465 2.242,0 -7.808,-26 -2.203,0 2.203,7.097" />
        <path
           inkscape:connector-curvature="0"
           id="path4196"
           style="fill:#080508;fill-opacity:1;fill-rule:nonzero;stroke:none"
           d="m 569.9031,90.435954 0,1.793 3.028,0 0,3.882 2.238,0.973 0,-4.855 3.812,0 0,-1.793 -3.812,0 0,-12.102 c 0,-2.504 0.262,-3.101 2.055,-3.101 0.75,0 1.269,0.035 1.757,0.113 l 0,-1.945 c -0.671,-0.075 -1.421,-0.11 -2.129,-0.11 -3.027,0 -3.921,1.344 -3.921,3.66 l 0,13.485 -3.028,0" />
        <path
           inkscape:connector-curvature="0"
           id="path4198"
           style="fill:#080508;fill-opacity:1;fill-rule:nonzero;stroke:none"
           d="m 583.2001,97.493954 0,2.839996 2.766,0 0,-2.839996 -2.766,0 z m 0.262,-24.129 0,18.864 2.242,0 0,-18.864 -2.242,0" />
        <path
           inkscape:connector-curvature="0"
           id="path4200"
           style="fill:#080508;fill-opacity:1;fill-rule:nonzero;stroke:none"
           d="m 599.9701,86.810954 c 0.109,2.355 -0.746,3.996 -3.325,3.996 -1.382,0 -2.539,-0.781 -3.027,-2.164 -0.297,-0.86 -0.523,-3.438 -0.523,-5.942 0,-3.398 0,-7.918 3.476,-7.918 2.949,0 3.324,1.868 3.438,4.145 l 2.242,0 c 0.184,-5.078 -3.402,-5.938 -5.156,-5.938 -6.391,0 -6.391,5.043 -6.391,9.711 0,1.867 0.078,4.821 0.563,6.239 0.972,2.691 3.101,3.664 5.675,3.664 3.25,0 5.457,-1.832 5.27,-5.793 l -2.242,0" />
        <path
           inkscape:connector-curvature="0"
           id="path4202"
           style="fill:#080508;fill-opacity:1;fill-rule:nonzero;stroke:none"
           d="m 611.4741,72.989954 c -4.075,0 -5.68,1.981 -5.645,5.977 l 2.281,0 c 0,-2.578 0.598,-4.297 3.477,-4.297 2.164,0 3.211,1.234 3.211,3.324 0,4.934 -8.481,3.664 -8.481,9.903 0,3.472 2.391,4.707 5.676,4.707 3.738,0 4.934,-2.578 4.934,-5.457 l -2.207,0 c -0.11,2.39 -0.746,3.66 -3.285,3.66 -1.606,0 -2.875,-1.043 -2.875,-2.727 0,-4.707 8.476,-3.433 8.476,-9.746 0,-3.551 -2.055,-5.344 -5.562,-5.344" />
        <path
           inkscape:connector-curvature="0"
           id="path4204"
           style="fill:#100f0d;fill-opacity:1;fill-rule:nonzero;stroke:none"
           d="m 1.2410305,72.936863 0,23.562 6.649,0 6.2690005,-16.312 0.066,0 0,16.312 4.598,0 0,-23.562 -6.488,0 -6.4340005,17.226 -0.062,0 0,-17.226 -4.598,0" />
        <path
           inkscape:connector-curvature="0"
           id="path4206"
           style="fill:#100f0d;fill-opacity:1;fill-rule:nonzero;stroke:none"
           d="m 22.749031,84.713863 c 0,6.234 0,12.172 8.125,12.172 5.027,0 7.051,-2.77 6.859,-7.828 l -4.836,0 c 0,3.129 -0.55,4.308 -2.023,4.308 -2.774,0 -3.137,-2.613 -3.137,-8.652 0,-6.035 0.363,-8.644 3.137,-8.644 2.281,0 2.191,2.933 2.254,4.796 l 4.863,0 c 0,-6.293 -2.516,-8.32 -7.117,-8.32 -8.125,0 -8.125,6.008 -8.125,12.168" />
        <path
           inkscape:connector-curvature="0"
           id="path4208"
           style="fill:#100f0d;fill-opacity:1;fill-rule:nonzero;stroke:none"
           d="m 54.764031,72.545863 c -6.105,0 -7.246,3.598 -6.988,7.668 l 4.934,0 c 0,-2.25 0.094,-4.144 2.804,-4.144 1.668,0 2.473,1.078 2.473,2.675 0,4.25 -9.914,4.504 -9.914,11.524 0,3.683 1.762,6.617 7.77,6.617 4.797,0 7.171,-2.149 6.851,-7.078 l -4.797,0 c 0,1.765 -0.3,3.558 -2.289,3.558 -1.594,0 -2.539,-0.882 -2.539,-2.511 0,-4.477 9.914,-4.078 9.914,-11.489 0,-6.097 -4.476,-6.82 -8.219,-6.82" />
        <path
           inkscape:connector-curvature="0"
           id="path4210"
           style="fill:#100f0d;fill-opacity:1;fill-rule:nonzero;stroke:none"
           d="m 80.542031,96.498863 0,-3.918 -5.477,0 0,-19.644 -4.929,0 0,19.644 -5.485,0 0,3.918 15.891,0" />
        <path
           inkscape:connector-curvature="0"
           id="path4212"
           style="fill:#100f0d;fill-opacity:1;fill-rule:nonzero;stroke:none"
           d="m 88.565031,91.959863 -0.07,0 -2.246,-10.183 4.695,0 -2.379,10.183 z m -9.492,-19.023 6.516,23.562 6.5,0 6.39,-23.562 -5.187,0 -1.301,5.226 -6.727,0 -1.335,-5.226 -4.856,0" />
        <path
           inkscape:connector-curvature="0"
           id="path4214"
           style="fill:#100f0d;fill-opacity:1;fill-rule:nonzero;stroke:none"
           d="m 112.85403,96.498863 0,-3.918 -5.488,0 0,-19.644 -4.93,0 0,19.644 -5.475999,0 0,3.918 15.893999,0" />
        <path
           inkscape:connector-curvature="0"
           id="path4216"
           style="fill:#100f0d;fill-opacity:1;fill-rule:nonzero;stroke:none"
           d="m 115.14303,72.936863 0,23.562 12.852,0 0,-3.625 -7.926,0 0,-5.808 7.309,0 0,-3.621 -7.309,0 0,-6.883 8.192,0 0,-3.625 -13.118,0" />
        <path
           inkscape:connector-curvature="0"
           id="path4218"
           style="fill:#100f0d;fill-opacity:1;fill-rule:nonzero;stroke:none"
           d="m 140.86603,81.686863 c 0,-3.067 0,-7.446 4.797,-7.446 4.797,0 4.797,4.379 4.797,7.446 l 0,14.812 2.086,0 0,-16.355 c 0,-6.063 -3.203,-7.664 -6.883,-7.664 -3.688,0 -6.887,1.601 -6.887,7.664 l 0,16.355 2.09,0 0,-14.812" />
        <path
           inkscape:connector-curvature="0"
           id="path4220"
           style="fill:#100f0d;fill-opacity:1;fill-rule:nonzero;stroke:none"
           d="m 158.72203,72.936863 0,23.562 3.199,0 9.558,-20.687 0.063,0.066 0,20.621 2.09,0 0,-23.562 -3.168,0 -9.582,20.918 -0.071,-0.071 0,-20.847 -2.089,0" />
        <path
           inkscape:connector-curvature="0"
           id="path4222"
           style="fill:#100f0d;fill-opacity:1;fill-rule:nonzero;stroke:none"
           d="m 180.19803,96.498863 2.09,0 0,-23.562 -2.09,0 0,23.562 z" />
        <path
           inkscape:connector-curvature="0"
           id="path4224"
           style="fill:#100f0d;fill-opacity:1;fill-rule:nonzero;stroke:none"
           d="m 200.30003,96.498863 2.023,0 -6.527,-23.562 -2.602,0 -6.566,23.562 2.219,0 5.589,-21.078 0.051,0 5.813,21.078" />
        <path
           inkscape:connector-curvature="0"
           id="path4226"
           style="fill:#100f0d;fill-opacity:1;fill-rule:nonzero;stroke:none"
           d="m 217.24503,96.498863 0,-1.762 -8.582,0 0,-8.808 8.199,0 0,-1.77 -8.199,0 0,-9.461 8.805,0 0,-1.761 -10.895,0 0,23.562 10.672,0" />
        <path
           inkscape:connector-curvature="0"
           id="path4228"
           style="fill:#100f0d;fill-opacity:1;fill-rule:nonzero;stroke:none"
           d="m 224.39303,86.123863 3.399,0 c 3.133,0 4.59,0.809 4.59,4.766 0,3.226 -1.27,3.847 -3.711,3.847 l -4.278,0 0,-8.613 z m 0,-1.762 0,-11.425 -2.082,0 0,23.562 6.489,0 c 4.543,0 5.675,-1.504 5.675,-5.644 0,-2.942 -0.492,-4.895 -3.652,-5.614 l 0,-0.066 c 3.297,-0.684 3.492,-1.074 3.492,-9.496 0,-0.91 0.16,-1.82 0.223,-2.742 l -1.981,0 c -0.203,0.691 -0.3,4.605 -0.332,5.871 -0.031,1.019 0.653,5.554 -3.875,5.554 l -3.957,0" />
        <path
           inkscape:connector-curvature="0"
           id="path4230"
           style="fill:#100f0d;fill-opacity:1;fill-rule:nonzero;stroke:none"
           d="m 250.18203,90.526863 c -0.058,2.902 -0.785,4.664 -3.988,4.664 -2.539,0 -4.14,-0.879 -4.14,-3.653 0,-3.496 1.761,-3.586 4.445,-5.519 2.898,-2.078 5.863,-2.703 5.863,-7.274 0,-4.207 -2.144,-6.265 -6.258,-6.265 -4.597,0 -6.66,2.488 -6.472,7.086 l 2.172,0 c 0,-2.61 0.187,-5.325 4.39,-5.325 2.746,0 4.082,1.473 4.082,4.184 0,3.195 -2.121,4.105 -5.512,6.191 -4.562,2.813 -4.761,4.211 -4.796,6.563 -0.032,4.078 2.546,5.773 6.394,5.773 4.895,0 5.942,-3.031 5.942,-6.425 l -2.122,0" />
        <path
           inkscape:connector-curvature="0"
           id="path4232"
           style="fill:#100f0d;fill-opacity:1;fill-rule:nonzero;stroke:none"
           d="m 258.24503,96.498863 2.086,0 0,-23.562 -2.086,0 0,23.562 z" />
        <path
           inkscape:connector-curvature="0"
           id="path4234"
           style="fill:#100f0d;fill-opacity:1;fill-rule:nonzero;stroke:none"
           d="m 270.57703,94.736863 -5.734,0 0,1.762 13.57,0 0,-1.762 -5.738,0 0,-21.8 -2.098,0 0,21.8" />
        <path
           inkscape:connector-curvature="0"
           id="path4236"
           style="fill:#100f0d;fill-opacity:1;fill-rule:nonzero;stroke:none"
           d="m 287.42903,82.725863 -6.661,13.773 2.352,0 5.387,-11.715 5.644,11.715 2.086,0 -6.715,-13.773 0,-9.789 -2.093,0 0,9.789" />
      </g>
    </g>
  </g>
</svg>
